<?xml version="1.0" encoding="UTF-8"?>
<svg xmlns="http://www.w3.org/2000/svg" xmlns:xlink="http://www.w3.org/1999/xlink" width="4000" zoomAndPan="magnify" viewBox="0 0 3000 2999.999989" height="4000" preserveAspectRatio="xMidYMid meet" version="1.0" style="background: transparent;"><defs><g/><clipPath id="ac35c9fe1c"><path d="M 10 0.441406 L 144 0.441406 L 144 414 L 10 414 Z M 10 0.441406 " clip-rule="nonzero"/></clipPath><clipPath id="20e5cf1718"><rect x="0" width="156" y="0" height="517"/></clipPath><clipPath id="6b70ac631f"><rect x="0" width="1546" y="0" height="142"/></clipPath><clipPath id="a82d2ca3fa"><rect x="0" width="1940" y="0" height="690"/></clipPath></defs><g transform="matrix(1, 0, 0, 1, 552, 1152)"><g clip-path="url(#a82d2ca3fa)"><g fill="#000000" fill-opacity="1"><g transform="translate(0.132227, 521.070068)"><g><path d="M 397.609375 -378.15625 L 397.609375 0 L 290.640625 0 L 290.640625 -147.484375 L 144.78125 -147.484375 L 144.78125 0 L 37.8125 0 L 37.8125 -378.15625 L 144.78125 -378.15625 L 144.78125 -236.078125 L 290.640625 -236.078125 L 290.640625 -378.15625 Z M 397.609375 -378.15625 "/></g></g></g><g fill="#000000" fill-opacity="1"><g transform="translate(478.785593, 521.070068)"><g><path d="M 240.40625 -135.59375 L 240.40625 0 L 133.4375 0 L 133.4375 -137.21875 L -10.796875 -378.15625 L 102.109375 -378.15625 L 191.78125 -227.984375 L 281.46875 -378.15625 L 385.1875 -378.15625 Z M 240.40625 -135.59375 "/></g></g></g><g fill="#000000" fill-opacity="1"><g transform="translate(896.39192, 521.070068)"><g/></g></g><g fill="#000000" fill-opacity="1"><g transform="translate(1096.821841, 521.070068)"><g><path d="M 210.6875 -378.15625 C 244.90625 -378.15625 274.617188 -372.484375 299.828125 -361.140625 C 325.035156 -349.796875 344.484375 -333.585938 358.171875 -312.515625 C 371.859375 -291.453125 378.703125 -266.695312 378.703125 -238.25 C 378.703125 -209.789062 371.859375 -185.113281 358.171875 -164.21875 C 344.484375 -143.332031 325.035156 -127.21875 299.828125 -115.875 C 274.617188 -104.53125 244.90625 -98.859375 210.6875 -98.859375 L 144.78125 -98.859375 L 144.78125 0 L 37.8125 0 L 37.8125 -378.15625 Z M 204.203125 -183.140625 C 226.171875 -183.140625 242.738281 -187.910156 253.90625 -197.453125 C 265.070312 -206.992188 270.65625 -220.59375 270.65625 -238.25 C 270.65625 -255.894531 265.070312 -269.578125 253.90625 -279.296875 C 242.738281 -289.023438 226.171875 -293.890625 204.203125 -293.890625 L 144.78125 -293.890625 L 144.78125 -183.140625 Z M 204.203125 -183.140625 "/></g></g></g><g fill="#000000" fill-opacity="1"><g transform="translate(1532.796351, 521.070068)"><g><path d="M 341.421875 -82.65625 L 341.421875 0 L 37.8125 0 L 37.8125 -378.15625 L 334.40625 -378.15625 L 334.40625 -295.515625 L 143.703125 -295.515625 L 143.703125 -231.765625 L 311.71875 -231.765625 L 311.71875 -151.8125 L 143.703125 -151.8125 L 143.703125 -82.65625 Z M 341.421875 -82.65625 "/></g></g></g><g transform="matrix(1, 0, 0, 1, 913, 109)"><g clip-path="url(#20e5cf1718)"><g clip-path="url(#ac35c9fe1c)"><g fill="#f4bc21" fill-opacity="1"><g transform="translate(0.707244, 413.323725)"><g><path d="M 76.65625 -298.015625 C 60.75 -298.015625 47.210938 -303.597656 36.046875 -314.765625 C 24.878906 -325.929688 19.296875 -339.46875 19.296875 -355.375 C 19.296875 -365.875 21.832031 -375.4375 26.90625 -384.0625 C 31.976562 -392.695312 38.914062 -399.632812 47.71875 -404.875 C 56.519531 -410.125 66.164062 -412.75 76.65625 -412.75 C 87.15625 -412.75 96.71875 -410.125 105.34375 -404.875 C 113.976562 -399.632812 120.914062 -392.695312 126.15625 -384.0625 C 131.40625 -375.4375 134.03125 -365.875 134.03125 -355.375 C 134.03125 -339.46875 128.445312 -325.929688 117.28125 -314.765625 C 105.425781 -303.597656 91.882812 -298.015625 76.65625 -298.015625 Z M 134.03125 -42.140625 C 134.03125 -28.941406 134.789062 -19.207031 136.3125 -12.9375 C 137.832031 -6.675781 140.117188 -2.363281 143.171875 0 L 10.15625 0 C 12.863281 -2.363281 15.0625 -6.675781 16.75 -12.9375 C 18.445312 -19.207031 19.296875 -28.941406 19.296875 -42.140625 L 19.296875 -282.78125 C 19.296875 -282.78125 21.578125 -280.832031 26.140625 -276.9375 C 30.710938 -273.050781 37.820312 -269.414062 47.46875 -266.03125 C 57.113281 -262.644531 69.722656 -261.96875 85.296875 -264 C 93.753906 -265.007812 102.128906 -266.867188 110.421875 -269.578125 C 118.710938 -272.285156 126.582031 -275.503906 134.03125 -279.234375 Z M 134.03125 -42.140625 "/></g></g></g></g></g></g><g transform="matrix(1, 0, 0, 1, 180, 548)"><g clip-path="url(#6b70ac631f)"><g fill="#000000" fill-opacity="1"><g transform="translate(1.298784, 112.168357)"><g><path d="M 13.171875 -80.890625 L 21.71875 -80.890625 L 21.71875 0 L 13.171875 0 Z M 13.171875 -80.890625 "/></g></g></g><g fill="#000000" fill-opacity="1"><g transform="translate(45.443391, 112.168357)"><g><path d="M 42.40625 -61.25 C 50.039062 -61.25 56.109375 -59.03125 60.609375 -54.59375 C 65.117188 -50.164062 67.375 -43.71875 67.375 -35.25 L 67.375 0 L 59.171875 0 L 59.171875 -34.4375 C 59.171875 -40.75 57.585938 -45.5625 54.421875 -48.875 C 51.265625 -52.195312 46.757812 -53.859375 40.90625 -53.859375 C 34.363281 -53.859375 29.179688 -51.910156 25.359375 -48.015625 C 21.546875 -44.128906 19.640625 -38.753906 19.640625 -31.890625 L 19.640625 0 L 11.4375 0 L 11.4375 -60.78125 L 19.296875 -60.78125 L 19.296875 -49.578125 C 21.535156 -53.273438 24.632812 -56.144531 28.59375 -58.1875 C 32.5625 -60.226562 37.164062 -61.25 42.40625 -61.25 Z M 42.40625 -61.25 "/></g></g></g><g fill="#000000" fill-opacity="1"><g transform="translate(132.921654, 112.168357)"><g><path d="M 31.546875 -79.390625 C 28.003906 -79.390625 25.328125 -78.425781 23.515625 -76.5 C 21.703125 -74.570312 20.796875 -71.722656 20.796875 -67.953125 L 20.796875 -60.78125 L 39.515625 -60.78125 L 39.515625 -53.859375 L 21.03125 -53.859375 L 21.03125 0 L 12.828125 0 L 12.828125 -53.859375 L 1.96875 -53.859375 L 1.96875 -60.78125 L 12.828125 -60.78125 L 12.828125 -68.296875 C 12.828125 -73.847656 14.425781 -78.238281 17.625 -81.46875 C 20.820312 -84.707031 25.347656 -86.328125 31.203125 -86.328125 C 33.515625 -86.328125 35.75 -86 37.90625 -85.34375 C 40.0625 -84.6875 41.867188 -83.742188 43.328125 -82.515625 L 40.5625 -76.390625 C 38.175781 -78.390625 35.171875 -79.390625 31.546875 -79.390625 Z M 31.546875 -79.390625 "/></g></g></g><g fill="#000000" fill-opacity="1"><g transform="translate(181.341839, 112.168357)"><g><path d="M 11.4375 -85.75 L 19.640625 -85.75 L 19.640625 0 L 11.4375 0 Z M 11.4375 -85.75 "/></g></g></g><g fill="#000000" fill-opacity="1"><g transform="translate(221.673108, 112.168357)"><g><path d="M 66.21875 -60.78125 L 66.21875 0 L 58.359375 0 L 58.359375 -11.09375 C 56.203125 -7.394531 53.234375 -4.523438 49.453125 -2.484375 C 45.679688 -0.441406 41.367188 0.578125 36.515625 0.578125 C 28.578125 0.578125 22.316406 -1.632812 17.734375 -6.0625 C 13.148438 -10.5 10.859375 -16.992188 10.859375 -25.546875 L 10.859375 -60.78125 L 19.0625 -60.78125 L 19.0625 -26.34375 C 19.0625 -19.945312 20.640625 -15.09375 23.796875 -11.78125 C 26.960938 -8.46875 31.472656 -6.8125 37.328125 -6.8125 C 43.722656 -6.8125 48.769531 -8.753906 52.46875 -12.640625 C 56.164062 -16.535156 58.015625 -21.953125 58.015625 -28.890625 L 58.015625 -60.78125 Z M 66.21875 -60.78125 "/></g></g></g><g fill="#000000" fill-opacity="1"><g transform="translate(308.689169, 112.168357)"><g><path d="M 64.375 -27.84375 L 13.515625 -27.84375 C 13.984375 -21.53125 16.410156 -16.425781 20.796875 -12.53125 C 25.191406 -8.644531 30.738281 -6.703125 37.4375 -6.703125 C 41.21875 -6.703125 44.6875 -7.375 47.84375 -8.71875 C 51 -10.070312 53.734375 -12.054688 56.046875 -14.671875 L 60.671875 -9.359375 C 57.972656 -6.117188 54.597656 -3.648438 50.546875 -1.953125 C 46.503906 -0.265625 42.0625 0.578125 37.21875 0.578125 C 30.96875 0.578125 25.4375 -0.75 20.625 -3.40625 C 15.8125 -6.0625 12.054688 -9.738281 9.359375 -14.4375 C 6.660156 -19.144531 5.3125 -24.460938 5.3125 -30.390625 C 5.3125 -36.328125 6.601562 -41.644531 9.1875 -46.34375 C 11.769531 -51.039062 15.3125 -54.695312 19.8125 -57.3125 C 24.320312 -59.9375 29.390625 -61.25 35.015625 -61.25 C 40.640625 -61.25 45.6875 -59.9375 50.15625 -57.3125 C 54.625 -54.695312 58.128906 -51.054688 60.671875 -46.390625 C 63.210938 -41.734375 64.484375 -36.398438 64.484375 -30.390625 Z M 35.015625 -54.203125 C 29.160156 -54.203125 24.25 -52.332031 20.28125 -48.59375 C 16.3125 -44.851562 14.054688 -39.976562 13.515625 -33.96875 L 56.625 -33.96875 C 56.082031 -39.976562 53.828125 -44.851562 49.859375 -48.59375 C 45.890625 -52.332031 40.941406 -54.203125 35.015625 -54.203125 Z M 35.015625 -54.203125 "/></g></g></g><g fill="#000000" fill-opacity="1"><g transform="translate(387.731809, 112.168357)"><g><path d="M 42.40625 -61.25 C 50.039062 -61.25 56.109375 -59.03125 60.609375 -54.59375 C 65.117188 -50.164062 67.375 -43.71875 67.375 -35.25 L 67.375 0 L 59.171875 0 L 59.171875 -34.4375 C 59.171875 -40.75 57.585938 -45.5625 54.421875 -48.875 C 51.265625 -52.195312 46.757812 -53.859375 40.90625 -53.859375 C 34.363281 -53.859375 29.179688 -51.910156 25.359375 -48.015625 C 21.546875 -44.128906 19.640625 -38.753906 19.640625 -31.890625 L 19.640625 0 L 11.4375 0 L 11.4375 -60.78125 L 19.296875 -60.78125 L 19.296875 -49.578125 C 21.535156 -53.273438 24.632812 -56.144531 28.59375 -58.1875 C 32.5625 -60.226562 37.164062 -61.25 42.40625 -61.25 Z M 42.40625 -61.25 "/></g></g></g><g fill="#000000" fill-opacity="1"><g transform="translate(475.441211, 112.168357)"><g><path d="M 36.640625 0.578125 C 30.628906 0.578125 25.253906 -0.726562 20.515625 -3.34375 C 15.773438 -5.96875 12.054688 -9.648438 9.359375 -14.390625 C 6.660156 -19.128906 5.3125 -24.460938 5.3125 -30.390625 C 5.3125 -36.328125 6.660156 -41.644531 9.359375 -46.34375 C 12.054688 -51.039062 15.773438 -54.695312 20.515625 -57.3125 C 25.253906 -59.9375 30.628906 -61.25 36.640625 -61.25 C 41.867188 -61.25 46.546875 -60.226562 50.671875 -58.1875 C 54.796875 -56.144531 58.050781 -53.160156 60.4375 -49.234375 L 54.3125 -45.0625 C 52.3125 -48.070312 49.769531 -50.328125 46.6875 -51.828125 C 43.601562 -53.328125 40.253906 -54.078125 36.640625 -54.078125 C 32.242188 -54.078125 28.289062 -53.09375 24.78125 -51.125 C 21.28125 -49.164062 18.546875 -46.375 16.578125 -42.75 C 14.617188 -39.132812 13.640625 -35.015625 13.640625 -30.390625 C 13.640625 -25.691406 14.617188 -21.550781 16.578125 -17.96875 C 18.546875 -14.382812 21.28125 -11.609375 24.78125 -9.640625 C 28.289062 -7.679688 32.242188 -6.703125 36.640625 -6.703125 C 40.253906 -6.703125 43.601562 -7.429688 46.6875 -8.890625 C 49.769531 -10.359375 52.3125 -12.59375 54.3125 -15.59375 L 60.4375 -11.4375 C 58.050781 -7.507812 54.773438 -4.523438 50.609375 -2.484375 C 46.453125 -0.441406 41.796875 0.578125 36.640625 0.578125 Z M 36.640625 0.578125 "/></g></g></g><g fill="#000000" fill-opacity="1"><g transform="translate(548.705947, 112.168357)"><g><path d="M 64.375 -27.84375 L 13.515625 -27.84375 C 13.984375 -21.53125 16.410156 -16.425781 20.796875 -12.53125 C 25.191406 -8.644531 30.738281 -6.703125 37.4375 -6.703125 C 41.21875 -6.703125 44.6875 -7.375 47.84375 -8.71875 C 51 -10.070312 53.734375 -12.054688 56.046875 -14.671875 L 60.671875 -9.359375 C 57.972656 -6.117188 54.597656 -3.648438 50.546875 -1.953125 C 46.503906 -0.265625 42.0625 0.578125 37.21875 0.578125 C 30.96875 0.578125 25.4375 -0.75 20.625 -3.40625 C 15.8125 -6.0625 12.054688 -9.738281 9.359375 -14.4375 C 6.660156 -19.144531 5.3125 -24.460938 5.3125 -30.390625 C 5.3125 -36.328125 6.601562 -41.644531 9.1875 -46.34375 C 11.769531 -51.039062 15.3125 -54.695312 19.8125 -57.3125 C 24.320312 -59.9375 29.390625 -61.25 35.015625 -61.25 C 40.640625 -61.25 45.6875 -59.9375 50.15625 -57.3125 C 54.625 -54.695312 58.128906 -51.054688 60.671875 -46.390625 C 63.210938 -41.734375 64.484375 -36.398438 64.484375 -30.390625 Z M 35.015625 -54.203125 C 29.160156 -54.203125 24.25 -52.332031 20.28125 -48.59375 C 16.3125 -44.851562 14.054688 -39.976562 13.515625 -33.96875 L 56.625 -33.96875 C 56.082031 -39.976562 53.828125 -44.851562 49.859375 -48.59375 C 45.890625 -52.332031 40.941406 -54.203125 35.015625 -54.203125 Z M 35.015625 -54.203125 "/></g></g></g><g fill="#000000" fill-opacity="1"><g transform="translate(627.748587, 112.168357)"><g><path d="M 19.296875 -48.890625 C 21.222656 -52.960938 24.09375 -56.039062 27.90625 -58.125 C 31.71875 -60.207031 36.4375 -61.25 42.0625 -61.25 L 42.0625 -53.28125 L 40.09375 -53.390625 C 33.707031 -53.390625 28.703125 -51.425781 25.078125 -47.5 C 21.453125 -43.570312 19.640625 -38.0625 19.640625 -30.96875 L 19.640625 0 L 11.4375 0 L 11.4375 -60.78125 L 19.296875 -60.78125 Z M 19.296875 -48.890625 "/></g></g></g><g fill="#000000" fill-opacity="1"><g transform="translate(683.333243, 112.168357)"><g/></g></g><g fill="#000000" fill-opacity="1"><g transform="translate(722.85564, 112.168357)"><g><path d="M 97.1875 -80.890625 L 97.1875 0 L 88.984375 0 L 88.984375 -64.71875 L 57.203125 -10.28125 L 53.15625 -10.28125 L 21.375 -64.375 L 21.375 0 L 13.171875 0 L 13.171875 -80.890625 L 20.21875 -80.890625 L 55.359375 -20.921875 L 90.140625 -80.890625 Z M 97.1875 -80.890625 "/></g></g></g><g fill="#000000" fill-opacity="1"><g transform="translate(842.458649, 112.168357)"><g><path d="M 32.703125 -61.25 C 40.640625 -61.25 46.722656 -59.265625 50.953125 -55.296875 C 55.191406 -51.328125 57.3125 -45.453125 57.3125 -37.671875 L 57.3125 0 L 49.453125 0 L 49.453125 -9.46875 C 47.609375 -6.3125 44.894531 -3.847656 41.3125 -2.078125 C 37.726562 -0.304688 33.472656 0.578125 28.546875 0.578125 C 21.765625 0.578125 16.367188 -1.035156 12.359375 -4.265625 C 8.359375 -7.503906 6.359375 -11.785156 6.359375 -17.109375 C 6.359375 -22.265625 8.222656 -26.421875 11.953125 -29.578125 C 15.691406 -32.742188 21.644531 -34.328125 29.8125 -34.328125 L 49.109375 -34.328125 L 49.109375 -38.015625 C 49.109375 -43.253906 47.644531 -47.238281 44.71875 -49.96875 C 41.789062 -52.707031 37.515625 -54.078125 31.890625 -54.078125 C 28.035156 -54.078125 24.335938 -53.441406 20.796875 -52.171875 C 17.253906 -50.898438 14.210938 -49.148438 11.671875 -46.921875 L 7.96875 -53.046875 C 11.050781 -55.660156 14.75 -57.679688 19.0625 -59.109375 C 23.382812 -60.535156 27.929688 -61.25 32.703125 -61.25 Z M 29.8125 -5.890625 C 34.4375 -5.890625 38.40625 -6.945312 41.71875 -9.0625 C 45.03125 -11.1875 47.492188 -14.253906 49.109375 -18.265625 L 49.109375 -28.203125 L 30.046875 -28.203125 C 19.640625 -28.203125 14.4375 -24.578125 14.4375 -17.328125 C 14.4375 -13.785156 15.785156 -10.992188 18.484375 -8.953125 C 21.179688 -6.910156 24.957031 -5.890625 29.8125 -5.890625 Z M 29.8125 -5.890625 "/></g></g></g><g fill="#000000" fill-opacity="1"><g transform="translate(919.883507, 112.168357)"><g><path d="M 19.296875 -48.890625 C 21.222656 -52.960938 24.09375 -56.039062 27.90625 -58.125 C 31.71875 -60.207031 36.4375 -61.25 42.0625 -61.25 L 42.0625 -53.28125 L 40.09375 -53.390625 C 33.707031 -53.390625 28.703125 -51.425781 25.078125 -47.5 C 21.453125 -43.570312 19.640625 -38.0625 19.640625 -30.96875 L 19.640625 0 L 11.4375 0 L 11.4375 -60.78125 L 19.296875 -60.78125 Z M 19.296875 -48.890625 "/></g></g></g><g fill="#000000" fill-opacity="1"><g transform="translate(974.543684, 112.168357)"><g><path d="M 33.96875 -30.515625 L 19.640625 -17.328125 L 19.640625 0 L 11.4375 0 L 11.4375 -85.75 L 19.640625 -85.75 L 19.640625 -27.625 L 55.9375 -60.78125 L 66.109375 -60.78125 L 40.09375 -35.9375 L 68.53125 0 L 58.46875 0 Z M 33.96875 -30.515625 "/></g></g></g><g fill="#000000" fill-opacity="1"><g transform="translate(1050.812695, 112.168357)"><g><path d="M 64.375 -27.84375 L 13.515625 -27.84375 C 13.984375 -21.53125 16.410156 -16.425781 20.796875 -12.53125 C 25.191406 -8.644531 30.738281 -6.703125 37.4375 -6.703125 C 41.21875 -6.703125 44.6875 -7.375 47.84375 -8.71875 C 51 -10.070312 53.734375 -12.054688 56.046875 -14.671875 L 60.671875 -9.359375 C 57.972656 -6.117188 54.597656 -3.648438 50.546875 -1.953125 C 46.503906 -0.265625 42.0625 0.578125 37.21875 0.578125 C 30.96875 0.578125 25.4375 -0.75 20.625 -3.40625 C 15.8125 -6.0625 12.054688 -9.738281 9.359375 -14.4375 C 6.660156 -19.144531 5.3125 -24.460938 5.3125 -30.390625 C 5.3125 -36.328125 6.601562 -41.644531 9.1875 -46.34375 C 11.769531 -51.039062 15.3125 -54.695312 19.8125 -57.3125 C 24.320312 -59.9375 29.390625 -61.25 35.015625 -61.25 C 40.640625 -61.25 45.6875 -59.9375 50.15625 -57.3125 C 54.625 -54.695312 58.128906 -51.054688 60.671875 -46.390625 C 63.210938 -41.734375 64.484375 -36.398438 64.484375 -30.390625 Z M 35.015625 -54.203125 C 29.160156 -54.203125 24.25 -52.332031 20.28125 -48.59375 C 16.3125 -44.851562 14.054688 -39.976562 13.515625 -33.96875 L 56.625 -33.96875 C 56.082031 -39.976562 53.828125 -44.851562 49.859375 -48.59375 C 45.890625 -52.332031 40.941406 -54.203125 35.015625 -54.203125 Z M 35.015625 -54.203125 "/></g></g></g><g fill="#000000" fill-opacity="1"><g transform="translate(1129.855372, 112.168357)"><g><path d="M 43.453125 -3.703125 C 41.910156 -2.316406 40.003906 -1.253906 37.734375 -0.515625 C 35.460938 0.210938 33.09375 0.578125 30.625 0.578125 C 24.925781 0.578125 20.535156 -0.960938 17.453125 -4.046875 C 14.367188 -7.128906 12.828125 -11.484375 12.828125 -17.109375 L 12.828125 -53.859375 L 1.96875 -53.859375 L 1.96875 -60.78125 L 12.828125 -60.78125 L 12.828125 -74.078125 L 21.03125 -74.078125 L 21.03125 -60.78125 L 39.515625 -60.78125 L 39.515625 -53.859375 L 21.03125 -53.859375 L 21.03125 -17.5625 C 21.03125 -13.945312 21.9375 -11.191406 23.75 -9.296875 C 25.5625 -7.410156 28.160156 -6.46875 31.546875 -6.46875 C 33.242188 -6.46875 34.878906 -6.738281 36.453125 -7.28125 C 38.035156 -7.820312 39.40625 -8.59375 40.5625 -9.59375 Z M 43.453125 -3.703125 "/></g></g></g><g fill="#000000" fill-opacity="1"><g transform="translate(1186.017875, 112.168357)"><g><path d="M 42.765625 -61.25 C 48.460938 -61.25 53.617188 -59.957031 58.234375 -57.375 C 62.859375 -54.789062 66.476562 -51.148438 69.09375 -46.453125 C 71.71875 -41.753906 73.03125 -36.398438 73.03125 -30.390625 C 73.03125 -24.304688 71.71875 -18.914062 69.09375 -14.21875 C 66.476562 -9.519531 62.878906 -5.878906 58.296875 -3.296875 C 53.710938 -0.710938 48.535156 0.578125 42.765625 0.578125 C 37.828125 0.578125 33.375 -0.441406 29.40625 -2.484375 C 25.4375 -4.523438 22.179688 -7.507812 19.640625 -11.4375 L 19.640625 22.421875 L 11.4375 22.421875 L 11.4375 -60.78125 L 19.296875 -60.78125 L 19.296875 -48.765625 C 21.765625 -52.773438 25.019531 -55.859375 29.0625 -58.015625 C 33.101562 -60.171875 37.671875 -61.25 42.765625 -61.25 Z M 42.1875 -6.703125 C 46.414062 -6.703125 50.265625 -7.679688 53.734375 -9.640625 C 57.203125 -11.609375 59.914062 -14.398438 61.875 -18.015625 C 63.84375 -21.640625 64.828125 -25.765625 64.828125 -30.390625 C 64.828125 -35.015625 63.84375 -39.117188 61.875 -42.703125 C 59.914062 -46.285156 57.203125 -49.078125 53.734375 -51.078125 C 50.265625 -53.078125 46.414062 -54.078125 42.1875 -54.078125 C 37.863281 -54.078125 33.988281 -53.078125 30.5625 -51.078125 C 27.132812 -49.078125 24.4375 -46.285156 22.46875 -42.703125 C 20.507812 -39.117188 19.53125 -35.015625 19.53125 -30.390625 C 19.53125 -25.765625 20.507812 -21.640625 22.46875 -18.015625 C 24.4375 -14.398438 27.132812 -11.609375 30.5625 -9.640625 C 33.988281 -7.679688 37.863281 -6.703125 42.1875 -6.703125 Z M 42.1875 -6.703125 "/></g></g></g><g fill="#000000" fill-opacity="1"><g transform="translate(1273.611632, 112.168357)"><g><path d="M 11.4375 -85.75 L 19.640625 -85.75 L 19.640625 0 L 11.4375 0 Z M 11.4375 -85.75 "/></g></g></g><g fill="#000000" fill-opacity="1"><g transform="translate(1313.943015, 112.168357)"><g><path d="M 32.703125 -61.25 C 40.640625 -61.25 46.722656 -59.265625 50.953125 -55.296875 C 55.191406 -51.328125 57.3125 -45.453125 57.3125 -37.671875 L 57.3125 0 L 49.453125 0 L 49.453125 -9.46875 C 47.609375 -6.3125 44.894531 -3.847656 41.3125 -2.078125 C 37.726562 -0.304688 33.472656 0.578125 28.546875 0.578125 C 21.765625 0.578125 16.367188 -1.035156 12.359375 -4.265625 C 8.359375 -7.503906 6.359375 -11.785156 6.359375 -17.109375 C 6.359375 -22.265625 8.222656 -26.421875 11.953125 -29.578125 C 15.691406 -32.742188 21.644531 -34.328125 29.8125 -34.328125 L 49.109375 -34.328125 L 49.109375 -38.015625 C 49.109375 -43.253906 47.644531 -47.238281 44.71875 -49.96875 C 41.789062 -52.707031 37.515625 -54.078125 31.890625 -54.078125 C 28.035156 -54.078125 24.335938 -53.441406 20.796875 -52.171875 C 17.253906 -50.898438 14.210938 -49.148438 11.671875 -46.921875 L 7.96875 -53.046875 C 11.050781 -55.660156 14.75 -57.679688 19.0625 -59.109375 C 23.382812 -60.535156 27.929688 -61.25 32.703125 -61.25 Z M 29.8125 -5.890625 C 34.4375 -5.890625 38.40625 -6.945312 41.71875 -9.0625 C 45.03125 -11.1875 47.492188 -14.253906 49.109375 -18.265625 L 49.109375 -28.203125 L 30.046875 -28.203125 C 19.640625 -28.203125 14.4375 -24.578125 14.4375 -17.328125 C 14.4375 -13.785156 15.785156 -10.992188 18.484375 -8.953125 C 21.179688 -6.910156 24.957031 -5.890625 29.8125 -5.890625 Z M 29.8125 -5.890625 "/></g></g></g><g fill="#000000" fill-opacity="1"><g transform="translate(1391.599012, 112.168357)"><g><path d="M 36.640625 0.578125 C 30.628906 0.578125 25.253906 -0.726562 20.515625 -3.34375 C 15.773438 -5.96875 12.054688 -9.648438 9.359375 -14.390625 C 6.660156 -19.128906 5.3125 -24.460938 5.3125 -30.390625 C 5.3125 -36.328125 6.660156 -41.644531 9.359375 -46.34375 C 12.054688 -51.039062 15.773438 -54.695312 20.515625 -57.3125 C 25.253906 -59.9375 30.628906 -61.25 36.640625 -61.25 C 41.867188 -61.25 46.546875 -60.226562 50.671875 -58.1875 C 54.796875 -56.144531 58.050781 -53.160156 60.4375 -49.234375 L 54.3125 -45.0625 C 52.3125 -48.070312 49.769531 -50.328125 46.6875 -51.828125 C 43.601562 -53.328125 40.253906 -54.078125 36.640625 -54.078125 C 32.242188 -54.078125 28.289062 -53.09375 24.78125 -51.125 C 21.28125 -49.164062 18.546875 -46.375 16.578125 -42.75 C 14.617188 -39.132812 13.640625 -35.015625 13.640625 -30.390625 C 13.640625 -25.691406 14.617188 -21.550781 16.578125 -17.96875 C 18.546875 -14.382812 21.28125 -11.609375 24.78125 -9.640625 C 28.289062 -7.679688 32.242188 -6.703125 36.640625 -6.703125 C 40.253906 -6.703125 43.601562 -7.429688 46.6875 -8.890625 C 49.769531 -10.359375 52.3125 -12.59375 54.3125 -15.59375 L 60.4375 -11.4375 C 58.050781 -7.507812 54.773438 -4.523438 50.609375 -2.484375 C 46.453125 -0.441406 41.796875 0.578125 36.640625 0.578125 Z M 36.640625 0.578125 "/></g></g></g><g fill="#000000" fill-opacity="1"><g transform="translate(1464.863674, 112.168357)"><g><path d="M 64.375 -27.84375 L 13.515625 -27.84375 C 13.984375 -21.53125 16.410156 -16.425781 20.796875 -12.53125 C 25.191406 -8.644531 30.738281 -6.703125 37.4375 -6.703125 C 41.21875 -6.703125 44.6875 -7.375 47.84375 -8.71875 C 51 -10.070312 53.734375 -12.054688 56.046875 -14.671875 L 60.671875 -9.359375 C 57.972656 -6.117188 54.597656 -3.648438 50.546875 -1.953125 C 46.503906 -0.265625 42.0625 0.578125 37.21875 0.578125 C 30.96875 0.578125 25.4375 -0.75 20.625 -3.40625 C 15.8125 -6.0625 12.054688 -9.738281 9.359375 -14.4375 C 6.660156 -19.144531 5.3125 -24.460938 5.3125 -30.390625 C 5.3125 -36.328125 6.601562 -41.644531 9.1875 -46.34375 C 11.769531 -51.039062 15.3125 -54.695312 19.8125 -57.3125 C 24.320312 -59.9375 29.390625 -61.25 35.015625 -61.25 C 40.640625 -61.25 45.6875 -59.9375 50.15625 -57.3125 C 54.625 -54.695312 58.128906 -51.054688 60.671875 -46.390625 C 63.210938 -41.734375 64.484375 -36.398438 64.484375 -30.390625 Z M 35.015625 -54.203125 C 29.160156 -54.203125 24.25 -52.332031 20.28125 -48.59375 C 16.3125 -44.851562 14.054688 -39.976562 13.515625 -33.96875 L 56.625 -33.96875 C 56.082031 -39.976562 53.828125 -44.851562 49.859375 -48.59375 C 45.890625 -52.332031 40.941406 -54.203125 35.015625 -54.203125 Z M 35.015625 -54.203125 "/></g></g></g></g></g></g></g></svg>