<svg xmlns="http://www.w3.org/2000/svg" xmlns:xlink="http://www.w3.org/1999/xlink" width="4000" zoomAndPan="magnify" viewBox="0 0 3000 2999.999989" height="4000" preserveAspectRatio="xMidYMid meet" version="1.0"><defs><g/><clipPath id="ebaf69af39"><rect x="0" width="2647" y="0" height="898"/></clipPath><clipPath id="e17f9bf100"><path d="M 14 0.320312 L 196 0.320312 L 196 564 L 14 564 Z M 14 0.320312 " clip-rule="nonzero"/></clipPath><clipPath id="eaea9d4c3b"><rect x="0" width="212" y="0" height="705"/></clipPath></defs><g transform="matrix(1, 0, 0, 1, 206, 1026)"><g clip-path="url(#ebaf69af39)"><g fill="#ffffff" fill-opacity="1"><g transform="translate(0.800821, 710.124236)"><g><path d="M 542.484375 -515.9375 L 542.484375 0 L 396.546875 0 L 396.546875 -201.21875 L 197.53125 -201.21875 L 197.53125 0 L 51.59375 0 L 51.59375 -515.9375 L 197.53125 -515.9375 L 197.53125 -322.09375 L 396.546875 -322.09375 L 396.546875 -515.9375 Z M 542.484375 -515.9375 "/></g></g></g><g fill="#ffffff" fill-opacity="1"><g transform="translate(653.839393, 710.124236)"><g><path d="M 328 -185 L 328 0 L 182.046875 0 L 182.046875 -187.21875 L -14.734375 -515.9375 L 139.3125 -515.9375 L 261.65625 -311.046875 L 384.015625 -515.9375 L 525.53125 -515.9375 Z M 328 -185 "/></g></g></g><g fill="#ffffff" fill-opacity="1"><g transform="translate(1223.589986, 710.124236)"><g/></g></g><g fill="#ffffff" fill-opacity="1"><g transform="translate(1497.041462, 710.124236)"><g><path d="M 287.453125 -515.9375 C 334.128906 -515.9375 374.664062 -508.195312 409.0625 -492.71875 C 443.457031 -477.25 469.992188 -455.140625 488.671875 -426.390625 C 507.347656 -397.640625 516.6875 -363.859375 516.6875 -325.046875 C 516.6875 -286.222656 507.347656 -252.5625 488.671875 -224.0625 C 469.992188 -195.5625 443.457031 -173.570312 409.0625 -158.09375 C 374.664062 -142.613281 334.128906 -134.875 287.453125 -134.875 L 197.53125 -134.875 L 197.53125 0 L 51.59375 0 L 51.59375 -515.9375 Z M 278.609375 -249.859375 C 308.585938 -249.859375 331.191406 -256.367188 346.421875 -269.390625 C 361.648438 -282.410156 369.265625 -300.960938 369.265625 -325.046875 C 369.265625 -349.117188 361.648438 -367.789062 346.421875 -381.0625 C 331.191406 -394.332031 308.585938 -400.96875 278.609375 -400.96875 L 197.53125 -400.96875 L 197.53125 -249.859375 Z M 278.609375 -249.859375 "/></g></g></g><g fill="#ffffff" fill-opacity="1"><g transform="translate(2091.852219, 710.124236)"><g><path d="M 465.828125 -112.765625 L 465.828125 0 L 51.59375 0 L 51.59375 -515.9375 L 456.234375 -515.9375 L 456.234375 -403.171875 L 196.0625 -403.171875 L 196.0625 -316.203125 L 425.28125 -316.203125 L 425.28125 -207.109375 L 196.0625 -207.109375 L 196.0625 -112.765625 Z M 465.828125 -112.765625 "/></g></g></g></g></g><g transform="matrix(1, 0, 0, 1, 1453, 1174)"><g clip-path="url(#eaea9d4c3b)"><g clip-path="url(#e17f9bf100)"><g fill="#f4bc21" fill-opacity="1"><g transform="translate(0.213533, 563.834182)"><g><path d="M 104.59375 -406.578125 C 82.882812 -406.578125 64.410156 -414.195312 49.171875 -429.4375 C 33.941406 -444.675781 26.328125 -463.144531 26.328125 -484.84375 C 26.328125 -499.15625 29.785156 -512.195312 36.703125 -523.96875 C 43.628906 -535.75 53.09375 -545.21875 65.09375 -552.375 C 77.101562 -559.53125 90.269531 -563.109375 104.59375 -563.109375 C 118.90625 -563.109375 131.945312 -559.53125 143.71875 -552.375 C 155.5 -545.21875 164.96875 -535.75 172.125 -523.96875 C 179.28125 -512.195312 182.859375 -499.15625 182.859375 -484.84375 C 182.859375 -463.144531 175.238281 -444.675781 160 -429.4375 C 143.832031 -414.195312 125.363281 -406.578125 104.59375 -406.578125 Z M 182.859375 -57.484375 C 182.859375 -39.472656 183.894531 -26.195312 185.96875 -17.65625 C 188.050781 -9.113281 191.171875 -3.226562 195.328125 0 L 13.859375 0 C 17.546875 -3.226562 20.546875 -9.113281 22.859375 -17.65625 C 25.171875 -26.195312 26.328125 -39.472656 26.328125 -57.484375 L 26.328125 -385.796875 C 26.328125 -385.796875 29.441406 -383.140625 35.671875 -377.828125 C 41.898438 -372.523438 51.59375 -367.5625 64.75 -362.9375 C 77.914062 -358.320312 95.117188 -357.398438 116.359375 -360.171875 C 127.898438 -361.554688 139.328125 -364.09375 150.640625 -367.78125 C 161.960938 -371.476562 172.703125 -375.867188 182.859375 -380.953125 Z M 182.859375 -57.484375 "/></g></g></g></g></g></g></svg>