<svg xmlns="http://www.w3.org/2000/svg" width="4000" height="4000" version="1.0" viewBox="0 0 3000 3000"><defs><clipPath id="c"><path d="M10 .441h134V414H10Zm0 0"/></clipPath><clipPath id="b"><path d="M0 0h156v517H0z"/></clipPath><clipPath id="d"><path d="M0 0h1546v142H0z"/></clipPath><clipPath id="a"><path d="M0 0h1940v690H0z"/></clipPath></defs><path fill="#fff" d="M-300-300h3600v3600H-300z"/><path fill="#fff" d="M-300-300h3600v3600H-300z"/><g clip-path="url(#a)" transform="translate(552 1152)"><path d="M397.742 142.914V521.07h-106.97V373.586H144.914V521.07H37.945V142.914h106.968v142.078h145.86V142.914ZM719.192 385.476V521.07H612.223V383.851L467.99 142.914h112.906l89.672 150.172 89.687-150.172h103.72ZM1307.51 142.914q51.325 0 89.14 17.015c25.207 11.344 44.656 27.555 58.344 48.625q20.53 31.596 20.531 74.266 0 42.69-20.531 74.031-20.533 31.33-58.344 48.344-37.815 17.016-89.14 17.016h-65.907v98.86h-106.969V142.913Zm-6.485 195.015q32.952 0 49.703-14.312 16.748-14.31 16.75-40.797-.002-26.467-16.75-41.047c-11.168-9.726-27.734-14.594-49.703-14.594h-59.422v110.75ZM1874.218 438.414v82.656h-303.61V142.914h296.595v82.64h-190.704v63.75h168.016v79.954H1676.5v69.156Zm0 0"/><g clip-path="url(#b)" transform="translate(913 109)"><g clip-path="url(#c)"><path fill="#f4bc21" d="M77.363 115.308c-15.906 0-29.445-5.582-40.609-16.75q-16.751-16.748-16.75-40.61-.001-15.75 7.61-28.687 7.605-12.95 20.812-20.812Q61.626.574 77.363.574q15.75 0 28.688 7.875 12.95 7.863 20.812 20.812 7.875 12.938 7.875 28.688-.001 23.86-16.75 40.61-17.784 16.75-40.625 16.75m57.375 255.875q-.002 19.8 2.282 29.203c1.52 6.262 3.804 10.574 6.86 12.938H10.862q4.063-3.546 6.594-12.938 2.546-9.405 2.547-29.203v-240.64q0 .001 6.844 5.843 6.855 5.832 21.328 10.906 14.467 5.08 37.828 2.032 12.685-1.512 25.125-5.578 12.435-4.06 23.61-9.657Zm0 0"/></g></g><g clip-path="url(#d)" transform="translate(180 548)"><path d="M14.47 31.278h8.548v80.89H14.47ZM87.85 50.918c7.632 0 13.703 2.22 18.203 6.657 4.508 4.43 6.765 10.875 6.765 19.343v35.25h-8.203V77.731q-.002-9.469-4.75-14.438c-3.156-3.32-7.664-4.984-13.515-4.984q-9.816.002-15.547 5.844-5.72 5.829-5.719 16.125v31.89h-8.203v-60.78h7.86V62.59q3.356-5.543 9.296-8.61c3.969-2.038 8.57-3.062 13.813-3.062M164.469 32.778q-5.314.001-8.032 2.89-2.718 2.894-2.718 8.547v7.172h18.718v6.922h-18.484v53.86h-8.203v-53.86h-10.86v-6.922h10.86v-7.516q-.001-8.325 4.797-13.171 4.793-4.86 13.578-4.86 3.469 0 6.703.985c2.156.656 3.96 1.601 5.422 2.828l-2.766 6.125q-3.579-3-9.015-3M192.78 26.418h8.202v85.75h-8.203ZM287.892 51.387v60.781h-7.86v-11.093q-3.234 5.55-8.906 8.609-5.66 3.063-12.937 3.062c-7.938 0-14.2-2.21-18.782-6.64-4.585-4.438-6.875-10.93-6.875-19.485V51.387h8.204v34.438q0 9.596 4.734 14.562 4.747 4.97 13.531 4.969 9.593 0 15.14-5.828c3.696-3.895 5.548-9.313 5.548-16.25v-31.89ZM373.064 84.325h-50.86q.703 9.47 7.282 15.312 6.592 5.83 16.64 5.828 5.672 0 10.407-2.015 4.734-2.028 8.203-5.954l4.625 5.313q-4.05 4.862-10.125 7.406-6.063 2.531-13.328 2.531-9.375 0-16.594-3.984c-4.812-2.656-8.57-6.332-11.265-11.031q-4.048-7.06-4.047-15.953c0-5.938 1.289-11.254 3.875-15.953q3.874-7.043 10.625-10.97c4.507-2.624 9.578-3.937 15.203-3.937q8.438 0 15.14 3.938 6.703 3.926 10.516 10.922c2.54 4.656 3.813 9.992 3.813 16Zm-29.36-26.36q-8.781 0-14.734 5.61c-3.968 3.742-6.226 8.617-6.765 14.625h43.11q-.815-9.012-6.766-14.625-5.955-5.61-14.844-5.61M430.138 50.918q11.451 0 18.203 6.657c4.508 4.43 6.766 10.875 6.766 19.343v35.25h-8.203V77.731c0-6.313-1.586-11.125-4.75-14.438-3.157-3.32-7.664-4.984-13.516-4.984q-9.816.002-15.547 5.844-5.719 5.829-5.719 16.125v31.89h-8.203v-60.78h7.86V62.59q3.356-5.543 9.297-8.61c3.968-2.038 8.57-3.062 13.812-3.062M512.082 112.746c-6.012 0-11.387-1.304-16.125-3.921q-7.113-3.936-11.156-11.047-4.049-7.107-4.047-16-.002-8.906 4.047-15.953 4.043-7.043 11.156-10.97 7.107-3.936 16.125-3.937c5.226 0 9.906 1.024 14.031 3.063q6.187 3.064 9.766 8.953l-6.125 4.172q-3.001-4.514-7.625-6.766-4.628-2.25-10.047-2.25-6.598 0-11.86 2.953c-3.5 1.961-6.234 4.75-8.203 8.375-1.96 3.618-2.937 7.735-2.937 12.36 0 4.699.976 8.84 2.937 12.422 1.97 3.586 4.703 6.359 8.203 8.328q5.262 2.938 11.86 2.937c3.613 0 6.96-.726 10.047-2.187q4.624-2.203 7.625-6.703l6.125 4.156q-3.581 5.895-9.828 8.953-6.235 3.063-13.97 3.062M613.08 84.325h-50.858q.701 9.47 7.28 15.312 6.593 5.83 16.641 5.828 5.672 0 10.407-2.015 4.734-2.028 8.203-5.954l4.625 5.313q-4.05 4.862-10.125 7.406-6.064 2.531-13.328 2.531-9.375 0-16.594-3.984t-11.266-11.031q-4.048-7.06-4.047-15.953-.001-8.906 3.875-15.953 3.874-7.043 10.625-10.97c4.508-2.624 9.579-3.937 15.204-3.937q8.437 0 15.14 3.938 6.703 3.926 10.516 10.922c2.539 4.656 3.812 9.992 3.812 16Zm-29.358-26.36q-8.783 0-14.735 5.61-5.955 5.613-6.765 14.625h43.109q-.814-9.012-6.766-14.625-5.954-5.61-14.843-5.61M647.045 63.278q2.89-6.106 8.61-9.235 5.718-3.124 14.156-3.125v7.97l-1.969-.11q-9.578.001-15.015 5.89-5.438 5.893-5.438 16.532v30.968h-8.203v-60.78h7.86ZM820.043 31.278v80.89h-8.203V47.45l-31.781 54.437h-4.047L744.23 47.793v64.375h-8.203v-80.89h7.046l35.141 59.968 34.781-59.968ZM875.162 50.918q11.905 0 18.25 5.953 6.359 5.954 6.36 17.625v37.672h-7.86V102.7q-2.767 4.734-8.14 7.39c-3.587 1.774-7.84 2.656-12.766 2.656q-10.174.001-16.188-4.843-6-4.858-6-12.844-.001-7.735 5.594-12.469c3.738-3.164 9.691-4.75 17.86-4.75h19.296v-3.687q-.001-7.858-4.39-11.953-4.393-4.11-12.829-4.11-5.784.001-11.093 1.906-5.316 1.911-9.125 5.25l-3.704-6.125q4.624-3.918 11.094-6.062 6.48-2.14 13.64-2.14m-2.89 55.36q6.937.002 11.905-3.172 4.967-3.187 7.391-9.203v-9.938h-19.062q-15.61 0-15.61 10.875 0 5.315 4.047 8.375 4.044 3.064 11.328 3.063M939.18 63.278q2.89-6.106 8.61-9.235 5.718-3.124 14.156-3.125v7.97l-1.969-.11q-9.578.001-15.015 5.89-5.438 5.893-5.438 16.532v30.968h-8.203v-60.78h7.86ZM1008.512 81.653 994.184 94.84v17.328h-8.203v-85.75h8.203v58.125l36.297-33.156h10.172l-26.016 24.844 28.438 35.937h-10.063ZM1115.188 84.325h-50.86q.703 9.47 7.282 15.312 6.591 5.83 16.64 5.828 5.672 0 10.406-2.015 4.735-2.028 8.204-5.954l4.625 5.313q-4.05 4.862-10.125 7.406-6.064 2.531-13.329 2.531-9.374 0-16.593-3.984-7.22-3.983-11.266-11.031-4.048-7.06-4.047-15.953-.001-8.906 3.875-15.953 3.874-7.043 10.625-10.97 6.764-3.936 15.203-3.937t15.14 3.938q6.704 3.926 10.517 10.922c2.539 4.656 3.812 9.992 3.812 16Zm-29.36-26.36q-8.782 0-14.734 5.61-5.956 5.613-6.766 14.625h43.11q-.813-9.012-6.766-14.625-5.954-5.61-14.844-5.61M1173.308 108.465q-2.314 2.08-5.718 3.188a23.2 23.2 0 0 1-7.11 1.093q-8.549.002-13.172-4.625-4.626-4.624-4.625-13.062v-36.75h-10.859v-6.922h10.86V38.09h8.203v13.297h18.484v6.922h-18.484v36.297q0 5.425 2.718 8.265 2.718 2.83 7.797 2.829 2.544 0 4.906-.813 2.375-.81 4.11-2.312ZM1228.784 50.918q8.543.001 15.468 3.875c4.625 2.586 8.242 6.227 10.86 10.922q3.937 7.05 3.937 16.063 0 9.128-3.937 16.172-3.925 7.049-10.797 10.921-6.878 3.877-15.532 3.875-7.406.001-13.359-3.062-5.955-3.059-9.765-8.953v33.86h-8.204V51.386h7.86v12.016q3.701-6.014 9.765-9.25 6.061-3.235 13.704-3.235m-.579 54.547c4.227 0 8.079-.976 11.547-2.937 3.469-1.969 6.18-4.758 8.14-8.375q2.954-5.438 2.954-12.375 0-6.936-2.953-12.313-2.94-5.374-8.14-8.375-5.206-3-11.548-3-6.486 0-11.625 3c-3.43 2-6.125 4.793-8.093 8.375q-2.94 5.377-2.938 12.313-.002 6.937 2.938 12.375c1.968 3.617 4.664 6.406 8.093 8.375q5.139 2.938 11.625 2.937M1285.05 26.418h8.202v85.75h-8.203ZM1346.646 50.918q11.906 0 18.25 5.953 6.359 5.954 6.36 17.625v37.672h-7.86V102.7q-2.766 4.734-8.14 7.39c-3.586 1.774-7.84 2.656-12.766 2.656-6.781 0-12.18-1.613-16.188-4.843q-6-4.858-6-12.844 0-7.735 5.594-12.469c3.738-3.164 9.692-4.75 17.86-4.75h19.296v-3.687q0-7.858-4.39-11.953c-2.93-2.739-7.203-4.11-12.828-4.11q-5.785.001-11.094 1.906-5.315 1.911-9.125 5.25l-3.703-6.125q4.624-3.918 11.094-6.062 6.48-2.14 13.64-2.14m-2.89 55.36q6.937.002 11.906-3.172 4.966-3.187 7.39-9.203v-9.938h-19.062q-15.61 0-15.61 10.875 0 5.315 4.047 8.375 4.045 3.064 11.329 3.063M1428.24 112.746c-6.012 0-11.387-1.304-16.125-3.921q-7.114-3.936-11.157-11.047-4.047-7.107-4.046-16-.001-8.906 4.046-15.953 4.043-7.043 11.157-10.97 7.107-3.936 16.125-3.937c5.226 0 9.906 1.024 14.03 3.063q6.188 3.064 9.767 8.953l-6.125 4.172q-3.001-4.514-7.625-6.766-4.628-2.25-10.047-2.25-6.598 0-11.86 2.953c-3.5 1.961-6.234 4.75-8.203 8.375-1.96 3.618-2.937 7.735-2.937 12.36 0 4.699.976 8.84 2.937 12.422 1.969 3.586 4.703 6.359 8.203 8.328q5.262 2.938 11.86 2.937c3.613 0 6.96-.726 10.047-2.187q4.624-2.203 7.625-6.703l6.125 4.156q-3.582 5.895-9.829 8.953-6.234 3.063-13.968 3.062M1529.239 84.325h-50.86q.703 9.47 7.282 15.312 6.591 5.83 16.64 5.828 5.672 0 10.406-2.015 4.735-2.028 8.204-5.954l4.625 5.313q-4.05 4.862-10.125 7.406-6.064 2.531-13.329 2.531-9.374 0-16.593-3.984-7.22-3.983-11.266-11.031-4.048-7.06-4.047-15.953-.001-8.906 3.875-15.953 3.874-7.043 10.625-10.97 6.764-3.936 15.203-3.937t15.14 3.938q6.704 3.926 10.517 10.922c2.539 4.656 3.812 9.992 3.812 16Zm-29.36-26.36q-8.782 0-14.734 5.61-5.956 5.613-6.766 14.625h43.11q-.813-9.012-6.766-14.625-5.954-5.61-14.844-5.61m0 0"/></g></g></svg>